<?xml version="1.0" standalone="no"?>
<!DOCTYPE svg PUBLIC "-//W3C//DTD SVG 20010904//EN"
 "http://www.w3.org/TR/2001/REC-SVG-20010904/DTD/svg10.dtd">
<svg version="1.0" xmlns="http://www.w3.org/2000/svg"
 width="190.000000pt" height="494.000000pt" viewBox="0 0 190.000000 494.000000"
 preserveAspectRatio="xMidYMid meet">

<g transform="translate(0.000000,494.000000) scale(0.100000,-0.100000)"
fill="#666666" stroke="none">
<path d="M10 4910 c0 -18 136 -201 1322 -1773 269 -356 491 -654 494 -661 3
-9 -160 -234 -408 -563 -228 -301 -580 -768 -783 -1038 -203 -269 -427 -566
-497 -659 -127 -168 -152 -216 -109 -216 10 0 21 6 24 12 3 7 258 349 568 760
310 410 719 952 909 1203 190 251 349 468 354 481 10 25 89 -81 -1544 2083
-284 376 -330 428 -330 371z"/>
</g>
</svg>
